<svg width="31" height="29" viewBox="0 0 31 29" fill="none" xmlns="http://www.w3.org/2000/svg">
<path d="M5.99638 4.70644L5.69134 5.3896L4.71106 4.85395C4.60747 4.79629 4.50234 4.73379 4.39721 4.6713C3.92259 4.38522 3.41453 4.0778 2.86303 4.23714C2.58079 4.32154 2.32601 4.50911 2.16647 4.77832C1.52147 5.88395 0.832179 7.28609 0.408598 8.75296C-0.0116816 10.2135 -0.188047 11.8042 0.271996 13.2513C0.304307 13.3529 0.336618 13.4546 0.373768 13.5547L4.57794 12.2128C4.80013 11.2522 5.30276 10.3357 5.61018 9.82769C5.76136 9.58246 6.06143 9.48707 6.32646 9.59998C6.87083 9.83724 7.81043 10.2952 8.54651 10.9511L12.7522 9.61409C12.7247 9.51091 12.6924 9.40928 12.6601 9.30765C12.2909 8.14611 11.4849 7.0861 10.5639 6.21721C9.63651 5.34503 8.55444 4.62326 7.56512 4.15976C7.28272 4.02573 6.97608 4.01664 6.70022 4.10434C6.40499 4.19819 6.13394 4.4016 6.00122 4.7049L5.99638 4.70644ZM11.6963 18.9982L12.9419 14.6695L13.0726 14.6279C13.7163 14.4233 14.0695 13.7408 13.8649 13.0971C13.6602 12.4535 12.9777 12.1002 12.3341 12.3049L2.26745 15.5052C1.62377 15.7098 1.27055 16.3923 1.47519 17.036C1.62135 17.4957 2.0137 17.808 2.46089 17.8736L2.85213 20.9146C2.91887 21.4263 3.03072 21.9289 3.18612 22.4177L3.29382 22.7565C4.66779 27.0784 9.28724 29.4732 13.6139 28.0977C16.0048 27.3376 17.9172 25.5253 18.806 23.1752L25.9246 4.36597C26.1014 3.89945 26.479 3.54495 26.9532 3.39417L30.0603 2.40639C30.4959 2.26791 30.7369 1.80229 30.5984 1.36672C30.523 1.12957 30.3458 0.940796 30.119 0.847693L28.6306 0.239112C27.9264 -0.0485608 27.1446 -0.0771283 26.4186 0.153663L24.9522 0.61986C24.1294 0.881423 23.4437 1.45648 23.0475 2.22187L21.5851 5.04747L21.0749 4.78338C20.4753 4.47308 19.7397 4.70695 19.4342 5.30497C19.1287 5.90299 19.3578 6.64017 19.9558 6.94563L20.4661 7.20972L20.0006 8.10907L19.4903 7.84498C18.8908 7.53467 18.1551 7.76854 17.8497 8.36656C17.5442 8.96459 17.7732 9.70176 18.3713 10.0072L18.8815 10.2713L18.4161 11.1707L17.9058 10.9066C17.3062 10.5963 16.5706 10.8301 16.2651 11.4282C15.9597 12.0262 16.1887 12.7634 16.7867 13.0688L17.297 13.3329L13.8506 19.9919C13.712 20.2598 13.4682 20.4652 13.1778 20.5575C12.5729 20.7498 11.9287 20.4164 11.7363 19.8114L11.7071 19.7195C11.6317 19.4823 11.6271 19.2333 11.6963 18.9982ZM9.18291 17.1434C9.28084 17.4515 9.25239 17.7858 9.10381 18.0729C8.95523 18.36 8.6987 18.5763 8.39064 18.6742C8.08258 18.7722 7.74824 18.7437 7.46116 18.5951C7.17408 18.4466 6.95778 18.19 6.85984 17.882C6.76191 17.5739 6.79036 17.2396 6.93894 16.9525C7.08752 16.6654 7.34405 16.4491 7.65211 16.3512C7.96017 16.2532 8.29451 16.2817 8.58159 16.4303C8.86867 16.5789 9.08497 16.8354 9.18291 17.1434ZM7.45737 21.1025C7.76543 21.0045 8.09978 21.033 8.38686 21.1816C8.67394 21.3302 8.89024 21.5867 8.98817 21.8947C9.08611 22.2028 9.05765 22.5371 8.90908 22.8242C8.7605 23.1113 8.50396 23.3276 8.1959 23.4255C7.88785 23.5235 7.5535 23.495 7.26642 23.3464C6.97934 23.1979 6.76304 22.9413 6.66511 22.6333C6.56717 22.3252 6.59562 21.9909 6.7442 21.7038C6.89278 21.4167 7.14932 21.2004 7.45737 21.1025Z" fill="white"/>
</svg>
